<svg xmlns="http://www.w3.org/2000/svg" width="725" height="450" viewBox="0 0 725 450" fill="none"><g clip-path="url(#clip0_500_1987)"><path d="M29.8219 433.799C29.8219 433.799 -29.4098 288.154 19.3251 202.172C51.0882 146.133 94.0664 118.837 183.15 139.556C227.134 149.785 264.244 92.2056 302.999 50.2154C338.522 11.719 408.38 -22.3757 476.371 18.5722C556.546 66.8587 554.251 131.072 585.023 162.821C615.801 194.572 652.77 158.286 701.266 221.537C761.828 300.517 686.95 433.799 686.95 433.799H29.8219Z" fill="#F2F6F8"></path><path d="M676.854 391.868C674.127 397.988 671.597 404.193 669.531 410.571C667.34 417.333 665.621 424.235 663.966 431.139C663.836 431.688 664.674 431.93 664.806 431.384C666.436 424.589 668.122 417.801 670.261 411.149C672.328 404.727 674.863 398.477 677.607 392.317C677.831 391.809 677.084 391.355 676.854 391.868Z" fill="#E8F8F8"></path><path d="M681.664 383.1C677.948 384.756 675.498 389.219 676.572 393.185C676.6 393.29 676.717 393.348 676.817 393.31C680.649 391.828 682.79 387.207 681.92 383.228C681.894 383.118 681.773 383.054 681.664 383.1Z" fill="#E8F8F8"></path><path d="M682.597 397.146C678.618 396.287 674.005 398.438 672.527 402.275C672.491 402.373 672.547 402.49 672.648 402.52C676.619 403.585 681.078 401.124 682.725 397.4C682.774 397.297 682.707 397.175 682.597 397.146Z" fill="#E8F8F8"></path><path d="M665.846 400.821C664.596 404.693 666.276 409.498 669.945 411.349C670.041 411.401 670.16 411.351 670.198 411.252C671.657 407.41 669.656 402.73 666.116 400.717C666.018 400.663 665.888 400.713 665.846 400.821Z" fill="#E8F8F8"></path><path d="M676.405 414.776C672.38 414.153 667.901 416.573 666.653 420.488C666.62 420.587 666.686 420.7 666.793 420.723C670.815 421.552 675.12 418.832 676.546 415.02C676.586 414.913 676.516 414.795 676.405 414.776Z" fill="#E8F8F8"></path><path d="M155.851 388.011C158.581 394.131 161.108 400.337 163.175 406.715C165.368 413.475 167.089 420.378 168.742 427.283C168.871 427.833 168.034 428.074 167.9 427.526C166.272 420.731 164.584 413.946 162.444 407.293C160.378 400.871 157.847 394.62 155.101 388.46C154.874 387.951 155.621 387.497 155.851 388.011Z" fill="#E8F8F8"></path><path d="M151.041 379.244C154.757 380.9 157.209 385.364 156.135 389.326C156.108 389.431 155.991 389.49 155.892 389.451C152.059 387.97 149.917 383.35 150.785 379.371C150.812 379.259 150.935 379.196 151.042 379.242L151.041 379.244Z" fill="#E8F8F8"></path><path d="M150.11 393.291C154.089 392.43 158.699 394.58 160.181 398.418C160.216 398.517 160.163 398.632 160.06 398.662C156.089 399.727 151.632 397.269 149.981 393.542C149.934 393.441 150.001 393.317 150.11 393.291Z" fill="#E8F8F8"></path><path d="M166.859 396.965C168.11 400.837 166.431 405.641 162.761 407.493C162.667 407.543 162.546 407.493 162.508 407.396C161.051 403.554 163.051 398.872 166.595 396.861C166.692 396.805 166.82 396.856 166.859 396.965Z" fill="#E8F8F8"></path><path d="M156.304 410.918C160.327 410.296 164.806 412.717 166.054 416.632C166.088 416.731 166.021 416.845 165.915 416.868C161.892 417.697 157.586 414.977 156.162 411.162C156.122 411.055 156.192 410.937 156.304 410.918Z" fill="#E8F8F8"></path><path d="M659.807 365.628C650.862 386.729 645.981 409.552 643.008 432.204C642.921 432.873 643.949 433.123 644.04 432.446C647 409.893 651.833 387.139 660.741 366.128C661.003 365.503 660.07 365.002 659.807 365.628Z" fill="#E8F8F8"></path><path d="M665.098 354.723C660.702 356.953 658 362.503 659.539 367.24C659.582 367.363 659.723 367.429 659.841 367.375C664.389 365.349 666.706 359.63 665.417 354.868C665.38 354.733 665.223 354.665 665.097 354.723H665.098Z" fill="#E8F8F8"></path><path d="M668.165 369.455C663.298 368.65 657.84 371.532 656.283 376.261C656.242 376.384 656.321 376.521 656.448 376.549C661.315 377.6 666.563 374.358 668.336 369.749C668.385 369.62 668.302 369.476 668.165 369.453V369.455Z" fill="#E8F8F8"></path><path d="M650.667 363.987C649.382 368.75 651.703 374.465 656.255 376.488C656.373 376.539 656.516 376.477 656.555 376.354C658.087 371.614 655.384 366.07 650.979 363.845C650.854 363.785 650.699 363.854 650.667 363.987Z" fill="#E8F8F8"></path><path d="M663.648 382.51C658.78 381.705 653.324 384.588 651.767 389.318C651.727 389.442 651.805 389.578 651.933 389.605C656.797 390.657 662.049 387.415 663.818 382.809C663.869 382.677 663.783 382.534 663.648 382.51Z" fill="#E8F8F8"></path><path d="M646.148 377.042C644.861 381.805 647.184 387.52 651.736 389.542C651.853 389.596 651.999 389.53 652.041 389.408C653.571 384.672 650.865 379.124 646.463 376.903C646.338 376.838 646.186 376.909 646.148 377.042Z" fill="#E8F8F8"></path><path d="M659.936 395.32C655.028 394.805 649.751 398.004 648.481 402.816C648.444 402.944 648.531 403.074 648.656 403.094C653.579 403.856 658.626 400.306 660.121 395.606C660.164 395.476 660.071 395.333 659.936 395.32Z" fill="#E8F8F8"></path><path d="M642.143 390.895C641.144 395.728 643.801 401.295 648.464 403.044C648.582 403.091 648.722 403.017 648.755 402.894C650.007 398.07 646.977 392.696 642.448 390.737C642.323 390.683 642.172 390.761 642.143 390.895Z" fill="#E8F8F8"></path><path d="M656.555 410.504C651.63 410.183 646.488 413.592 645.408 418.455C645.377 418.58 645.468 418.707 645.598 418.724C650.544 419.289 655.448 415.541 656.756 410.783C656.792 410.648 656.695 410.514 656.555 410.504Z" fill="#E8F8F8"></path><path d="M638.596 406.796C637.791 411.663 640.671 417.119 645.398 418.684C645.52 418.721 645.658 418.647 645.687 418.52C646.743 413.651 643.501 408.4 638.898 406.626C638.768 406.575 638.624 406.661 638.596 406.796Z" fill="#E8F8F8"></path><path d="M25.8513 433.228C25.8513 442.491 175.028 450 359.048 450C543.068 450 692.238 442.491 692.238 433.228C692.238 423.965 543.064 416.455 359.048 416.455C175.033 416.455 25.8513 423.966 25.8513 433.228Z" fill="#E6ECEE"></path><path d="M317.685 228.559C315.406 228.88 313.413 229.848 311.844 231.236C310.595 232.334 309.23 233.282 307.776 234.075C306.51 234.771 304.927 234.047 304.583 232.642L295.685 196.648C295.276 194.992 296.293 193.313 297.949 192.903L333.352 184.157C335.039 183.739 335.893 181.814 335.011 180.321C334.223 178.981 333.32 177.705 332.322 176.503C331.28 175.251 330.499 173.747 330.079 172.058C328.499 165.66 332.775 159.197 339.497 158.305C344.641 157.624 349.665 160.698 351.42 165.575C352.192 167.745 352.261 169.959 351.771 171.998C351.423 173.406 351.227 174.847 351.164 176.287C351.092 178.039 352.725 179.373 354.425 178.947L389.899 170.185C391.56 169.772 393.236 170.786 393.641 172.447L402.538 208.442C402.883 209.842 401.821 211.224 400.372 211.2C398.72 211.169 397.071 210.969 395.459 210.578C393.417 210.076 391.206 210.152 389.044 210.927C384.151 212.676 381.079 217.705 381.761 222.85C382.649 229.569 389.118 233.846 395.517 232.265C397.204 231.847 398.71 231.064 399.959 230.026C401.294 228.911 402.729 227.918 404.241 227.068C405.519 226.35 407.135 227.052 407.486 228.479L416.36 264.394C416.771 266.054 415.762 267.733 414.101 268.139L322.147 290.86C320.493 291.268 318.813 290.259 318.403 288.597L309.53 252.68C309.178 251.253 310.282 249.881 311.751 249.918C313.48 249.968 315.205 250.182 316.913 250.543C318.505 250.882 320.201 250.873 321.888 250.455C328.283 248.876 332.021 242.077 329.668 235.715C327.881 230.849 322.818 227.828 317.682 228.557L317.685 228.559Z" fill="#88CEFC"></path><path d="M359.4 429.713L365.982 429.917L368.17 413.841L359.383 413.702L359.4 429.713Z" fill="#A76B63"></path><path d="M373.105 432.451C371.904 431.582 370.582 430.918 369.268 430.246C368.276 429.74 367.092 429.256 366.154 428.642C363.958 429.428 359.402 428.422 359.402 428.422C359.195 429.956 358.215 435.181 360.179 436.515C362.172 437.866 366.493 437.915 369.135 437.814C371.24 437.743 375.482 437.844 375.348 435.36C375.272 434.076 374.08 433.158 373.106 432.451H373.105Z" fill="#14232F"></path><path d="M321.791 425.296L328.272 426.493L332.881 410.94L324.217 409.462L321.791 425.296Z" fill="#A76B63"></path><path d="M334.925 430.08C333.87 429.041 332.661 428.181 331.469 427.32C330.562 426.671 329.467 426.011 328.634 425.261C326.34 425.698 321.993 424.015 321.993 424.015C321.557 425.503 319.787 430.518 321.524 432.13C323.289 433.765 327.555 434.476 330.181 434.782C332.275 435.029 336.45 435.777 336.691 433.3C336.821 432.016 335.78 430.93 334.927 430.081L334.925 430.08Z" fill="#14232F"></path><path d="M367.348 211.557C367.459 213.599 367.775 221.597 366.201 225.703C364.615 229.842 360.695 229.21 360.695 229.21C360.539 230.098 360.619 232.239 360.619 232.239C356.79 233.209 350.548 232.087 350.548 232.087C351.558 229.33 350.977 223.076 350.977 223.076C355.702 213.997 367.348 211.558 367.348 211.558V211.557Z" fill="#A76B63"></path><path d="M341.166 208.8C341.243 209.026 341.583 209.063 341.668 208.827C341.791 209.368 341.977 209.904 342.148 210.429C342.352 211.067 342.571 211.7 342.792 212.329C342.872 212.538 343.162 212.604 343.286 212.394C343.399 212.197 343.52 212.011 343.654 211.828C343.554 214.423 343.753 217.047 344.467 219.462C344.964 221.143 345.909 222.415 347.195 223.576C348.799 225.021 350.766 226.45 350.837 228.816C350.845 229.058 351.123 229.158 351.296 229.006C351.42 228.897 351.546 228.786 351.67 228.674C351.641 228.914 351.596 229.151 351.536 229.394C351.487 229.595 351.666 229.769 351.867 229.722C353.383 229.374 354.502 228.373 355.445 227.179C356.537 225.812 357.501 224.43 358.854 223.292C360.126 222.222 361.571 221.44 362.888 220.44C363.709 219.827 364.203 219.058 364.572 218.195C364.814 218.305 365.085 218.352 365.359 218.31C366.084 218.2 366.57 217.534 366.763 216.873C367.05 215.912 366.841 214.874 366.904 213.887C366.96 213.045 367.125 212.218 367.395 211.423C369.041 210.508 370.222 208.964 370.509 207.028C370.833 204.861 370.105 203.369 368.427 202.111C367.335 201.293 366.952 200.027 366.099 199.009C365.425 198.2 364.564 197.548 363.611 197.094C361.768 196.21 359.675 196.077 357.745 196.751C357.649 196.786 357.604 196.85 357.581 196.921C354.825 196.123 351.922 195.867 349.377 197.502C349.183 197.625 349.227 197.851 349.38 197.948C346.603 198.363 343.823 199.091 342.014 201.416C341.861 201.617 341.991 201.938 342.274 201.868C342.574 201.763 342.875 201.74 343.176 201.757C341.142 203.465 340.305 206.236 341.17 208.801L341.166 208.8Z" fill="#14232F"></path><path d="M362.147 219.561C362.512 220.974 363.572 221.927 364.505 221.685C365.443 221.444 365.907 220.098 365.542 218.683C365.179 217.268 364.188 216.578 363.25 216.821C362.318 217.064 361.785 218.146 362.148 219.561H362.147Z" fill="#A76B63"></path><path d="M326.172 289.171C323.599 285.205 326.167 272.463 326.905 270.021H334.702V295.235C332.171 294.484 327.601 291.378 326.172 289.171Z" fill="#A76B63"></path><path d="M321.256 420.267C321.8 413.478 326.094 385.17 327.958 378.387C331.604 365.115 330.805 332.85 331.604 322.583L382.621 321.06C384.361 332.852 383.153 350.447 381.848 363.642C380.386 378.388 375.922 405.223 367.566 425.083L357.875 424.833C357.107 405.888 357.229 386.955 355.279 368.09C355.276 368.063 352.955 375.82 349.784 383.661C345.599 394.014 333.522 417.689 331.354 422.08L321.256 420.266V420.267Z" fill="#30617A"></path><path d="M382.689 271.695C382.916 285.422 385.392 328.304 385.416 328.623C385.416 328.623 373.452 326.527 361.03 328.623C342.355 331.769 330.169 328.623 330.169 328.623C329.68 313.413 329.909 291.542 331.083 276.37C329.742 275.71 324.841 273.529 324.841 273.529C326.851 259.768 328.028 251.171 333.482 243.863C337.379 238.641 345.813 235.171 348.763 233.766C348.763 233.766 349.684 232.187 350.198 231.227L361.725 231.111C361.934 231.123 362.798 233.794 362.798 233.794C370.583 236.087 378.266 239.141 382.622 245.475C389.088 254.872 393.634 262.062 393.634 262.062C389.151 266.495 386.781 268.714 382.691 271.697L382.689 271.695Z" fill="#398FB9"></path><path d="M355.279 368.09C354.264 359.129 353.457 350.143 352.878 341.14C352.862 340.87 353.279 340.871 353.297 341.14C353.881 350.143 354.682 359.129 355.703 368.09C355.733 368.361 355.312 368.361 355.278 368.09H355.279Z" fill="#224A5F"></path><path d="M330.805 276.283C330.959 266.671 332.194 257.117 334.491 247.782C334.555 247.519 334.959 247.632 334.894 247.892C332.606 257.192 331.38 266.708 331.226 276.283C331.222 276.553 330.796 276.553 330.805 276.283Z" fill="#20759E"></path><path d="M373.433 310.122C368.637 301.31 364.702 292.065 361.685 282.496C361.603 282.238 362.01 282.128 362.09 282.385C365.098 291.917 369.018 301.13 373.797 309.908C373.927 310.149 373.559 310.36 373.433 310.12V310.122Z" fill="#20759E"></path><path d="M365.539 298.831C366.668 306.498 369.247 313.875 373.142 320.573C373.275 320.809 372.915 321.018 372.778 320.784C368.869 314.054 366.27 306.645 365.134 298.943C365.094 298.678 365.498 298.564 365.539 298.831Z" fill="#20759E"></path><path d="M391.728 263.935C391.728 263.935 393.264 265.687 396.251 270.041C397.703 268.958 401.942 264.341 407.286 259.275C407.138 258.207 406.984 257.139 406.83 256.069C406.725 255.349 406.622 254.632 406.523 253.911C406.444 253.383 406.253 252.759 406.337 252.225C406.385 251.93 406.587 251.63 406.909 251.595C407.245 251.56 407.415 251.847 407.568 252.095C408.26 253.222 408.463 255.889 409.748 255.273C413.287 253.579 411.543 244.896 411.543 244.896C411.543 244.896 414.102 243.63 416.14 253.46C416.902 257.141 412.675 260.336 412.359 260.646C410.019 266.063 403.363 278.943 400.713 281.728C398.641 283.898 396.094 284.891 392.728 284.601C387.71 284.168 379.909 275.337 379.334 274.517L391.73 263.937L391.728 263.935Z" fill="#A76B63"></path><path d="M370.343 238.577C366.117 243.837 365.807 251.177 367.341 257.495C369.034 264.477 372.948 270.7 376.835 276.641C376.985 276.869 377.338 276.632 377.187 276.403C373.566 270.87 369.952 265.13 368.105 258.718C366.223 252.206 366.22 244.38 370.659 238.853C370.829 238.639 370.509 238.36 370.342 238.577H370.343Z" fill="#20759E"></path><path d="M379.063 274.679C378.165 275.345 378.2 275.392 377.299 276.054C377.172 276.147 377.044 276.243 376.917 276.335C376.825 276.404 376.774 276.518 376.837 276.624C376.888 276.717 377.035 276.771 377.127 276.704C378.026 276.04 377.99 275.993 378.89 275.332C379.018 275.236 379.145 275.14 379.275 275.048C379.367 274.981 379.415 274.869 379.352 274.761C379.304 274.669 379.155 274.611 379.064 274.679H379.063Z" fill="#20759E"></path><path d="M579.997 227.966C579.569 225.73 579.248 223.396 578.644 221.177L570.664 216.651C569.687 221.259 568.574 225.836 568.869 230.583C569.013 232.93 569.413 235.259 569.966 237.541C570.257 238.746 571.326 242.96 571.893 243.454C572.958 244.382 575.618 244.304 576.912 244.074C578.629 243.764 580.204 242.439 581.178 241.026C582.322 239.364 580.477 230.48 579.999 227.966H579.997Z" fill="#402013"></path><path d="M641.285 231.167C640.998 230.078 640.688 228.998 640.377 227.92C640.151 227.147 639.42 225.587 638.408 225.149C637.006 224.541 635.875 227.058 635.998 228.406C636.151 230.119 636.954 231.728 636.401 233.487C635.938 234.959 634.767 236.094 634.309 237.573C633.921 238.836 634.003 240.169 634.469 241.383C634.469 241.383 625.562 255.644 621.082 262.346C616.959 257.265 608.034 242.374 603.281 239.956C597.273 236.9 595.664 236.49 592.249 235.89C586.695 234.914 578.077 234.925 578.077 234.925C571.389 236.775 563.884 238.566 558.34 243.015C554.769 245.879 552.197 255.766 551.736 263.027C551.031 274.138 551.508 282.156 554.178 285.272C555.918 287.305 558.294 287.977 561.112 286.441C566.375 283.564 570.68 279.272 573.384 276.825C579.98 270.849 584.121 262.772 590.151 256.211C594.293 255.83 599.609 259.554 603.768 259.524C606.746 262.262 612.546 272.816 618.986 274.998C621.959 276.003 626.039 275.564 628.515 271.564C633.324 263.796 636.553 247.752 638.087 242.111C638.703 240.873 640.18 238.347 640.779 237.104C641.205 236.233 641.605 235.34 641.729 234.368C641.867 233.277 641.556 232.208 641.283 231.164L641.285 231.167Z" fill="#FDA78C"></path><path d="M577.089 424.736L571.206 424.823C570.183 407.16 564.36 387.664 564.577 372.199C564.577 372.199 580.611 368.435 580.672 372.52C580.894 386.445 577.797 406.681 577.089 424.737V424.736Z" fill="#FDA78C"></path><path d="M576.98 423.514C576.378 422.656 575.244 422.373 574.181 422.53C572.93 422.711 571.009 424.098 569.816 426.666C568.929 428.575 568.204 430.949 569.272 432.824C569.859 433.862 570.895 434.496 572.056 434.69C573.167 434.876 574.567 434.867 575.581 434.312C576.626 433.742 577.279 432.647 577.47 431.491C577.694 430.114 577.75 428.642 577.791 427.242C577.828 425.975 577.733 424.585 576.98 423.514Z" fill="#14232F"></path><path d="M595.257 425.156L601.151 425.443L602.613 372.043L586.742 376.522C587.579 396.424 593.597 402.67 595.257 425.157V425.156Z" fill="#FDA78C"></path><path d="M607.125 428.24C606.101 427.407 604.953 426.752 603.816 426.088C602.954 425.588 601.986 424.846 601.184 424.253C599.183 424.842 595.157 423.874 595.157 423.874C594.903 425.229 593.721 429.946 595.406 431.231C597.117 432.533 600.967 432.784 603.325 432.827C605.207 432.861 608.982 433.163 608.979 430.942C608.979 429.792 607.961 428.915 607.125 428.238V428.24Z" fill="#14232F"></path><path d="M599.592 287.282H564.57C555.848 312.926 561.305 326.124 561.722 357.456C561.832 365.798 560.181 370.754 558.477 377.199C562.777 378.238 566.76 381.168 571.148 381.065C575.631 380.961 578.778 379.359 583.195 380.206C587.312 380.994 600.126 382.996 610.454 375.586C609.205 371.28 605.523 366.462 604.817 347.559C604.128 329.135 607.554 304.999 599.593 287.282H599.592Z" fill="#1BBBBA"></path><path d="M599.089 247.935V238.057C599.089 237.726 598.819 237.456 598.487 237.456C598.154 237.456 597.884 237.726 597.884 238.057V247.762L582.84 256.347L567.917 247.699V238.057C567.917 237.726 567.646 237.456 567.314 237.456C566.983 237.456 566.712 237.726 566.712 238.057V248.116L562.88 260.789C562.88 260.789 562.844 272.336 561.091 289.571C561.091 289.571 582.259 296.413 603.769 288.923C603.769 288.923 600.948 276.682 603.769 259.527L599.089 247.935Z" fill="#E8F8F8"></path><path d="M588.437 235.201C588.437 235.201 588.081 228.751 587.965 225.429C587.965 225.429 586.743 224 586.705 221.845C586.509 221.868 581.579 206.611 579.193 206.621C573.988 206.647 572.947 209.176 571.843 212.058C571.004 213.696 570.91 215.346 570.398 217.945C569.332 223.386 570.187 228.286 572.77 230.546C574.103 231.71 576.575 231.57 578.107 231.036L578.08 235.123C578.08 235.123 584.106 236.8 588.435 235.201H588.437Z" fill="#FDA78C"></path><path d="M578.334 231.346C580.07 230.804 581.752 229.988 583.031 228.67C583.218 228.48 582.928 228.189 582.746 228.377C581.511 229.648 579.894 230.432 578.222 230.95C577.973 231.029 578.078 231.426 578.334 231.346Z" fill="#F5816C"></path><path d="M598.872 230.907C598.278 229.081 597.224 227.576 596.224 225.957C593.682 221.837 595.238 217.204 593.951 212.788C593 209.522 590.487 206.927 587.6 205.249C584.493 203.442 580.251 202.167 577.055 204.243C574.427 203.733 571.632 204.674 569.983 206.91C568.992 208.255 568.477 209.928 568.587 211.598C568.719 213.617 569.629 215.5 570.523 217.281C570.523 217.281 570.613 217.117 570.665 217.001C571.575 214.926 571.444 212.682 572.74 210.749C573.724 209.285 575.224 208.24 576.913 207.788C577.15 209.914 577.584 212.035 578.518 213.968C579.697 216.418 581.715 218.039 583.885 219.58C584.861 222.307 585.435 225.145 585.44 228.076C585.444 231.654 584.802 235.193 584.841 238.77C584.861 240.84 585.133 243.339 587.035 244.575C589.669 246.288 593.064 244.687 595.932 245.262C595.978 245.27 596.034 245.263 596.066 245.226C598.248 242.645 599.463 239.404 599.58 236.027C599.64 234.298 599.405 232.554 598.871 230.909L598.872 230.907Z" fill="#402013"></path><path d="M589.782 353.226C589.792 352.956 589.375 352.9 589.36 353.17C589.079 358.698 588.658 369.334 588.408 374.271C588.392 374.541 588.811 374.599 588.826 374.326C589.066 369.582 589.537 357.953 589.782 353.226Z" fill="#1C6F73"></path><path d="M586.85 359.999C585.832 363.318 584.987 366.688 584.323 370.094C584.276 370.339 583.899 370.246 583.946 370.002C584.612 366.595 585.458 363.227 586.475 359.909C586.549 359.673 586.92 359.763 586.85 359.997V359.999Z" fill="#1C6F73"></path><path d="M653.112 298.531C654.529 300.345 656.358 301.585 658.346 302.253C659.926 302.787 661.423 303.496 662.84 304.354C664.077 305.106 664.239 306.845 663.201 307.846L636.452 333.523C635.217 334.706 633.259 334.666 632.074 333.433L606.82 307.128C605.614 305.874 603.519 306.096 602.668 307.603C601.9 308.948 601.242 310.374 600.704 311.842C600.137 313.373 599.226 314.796 597.971 316.004C593.217 320.561 585.483 320.09 581.351 314.715C578.194 310.596 578.345 304.708 581.699 300.753C583.191 298.995 585.074 297.832 587.087 297.241C588.481 296.835 589.826 296.29 591.106 295.623C592.663 294.815 592.995 292.735 591.786 291.468L566.479 265.113C565.293 263.878 565.334 261.922 566.571 260.739L593.314 235.061C594.356 234.061 596.084 234.29 596.785 235.556C597.583 237.005 598.231 238.533 598.698 240.128C599.288 242.145 600.457 244.025 602.207 245.507C606.162 248.873 612.052 249.024 616.166 245.864C621.546 241.737 622.023 233.998 617.46 229.245C616.255 227.99 614.827 227.077 613.3 226.514C611.663 225.913 610.091 225.166 608.602 224.283C607.334 223.53 607.143 221.785 608.204 220.767L634.891 195.144C636.119 193.959 638.078 193.996 639.265 195.231L704.86 263.553C706.046 264.785 706.006 266.741 704.77 267.925L678.084 293.553C677.023 294.571 675.281 294.295 674.583 293.004C673.762 291.485 673.081 289.881 672.544 288.221C672.043 286.671 671.188 285.206 669.983 283.951C665.425 279.201 657.671 279.362 653.326 284.571C650.003 288.55 649.917 294.446 653.112 298.533V298.531Z" fill="#FFD573"></path><path d="M595.628 259.581C595.378 258.534 589.884 257.558 587.526 258.167C586.985 258.31 586.364 258.451 585.881 258.75C585.428 259.033 585.131 259.564 584.827 259.986C584.109 260.981 583.428 261.997 582.756 263.025C582.686 263.102 564.532 272.365 561.094 273.786L561.117 286.443C565.337 284.141 568.945 280.977 572.45 277.702C576.434 273.981 580.398 270.235 584.372 266.494C585.194 266.503 586.014 266.37 586.795 266.084C587.868 265.693 588.708 265.001 589.613 264.327C590.658 263.549 591.889 263.025 593.101 262.562C594.021 262.212 595.962 260.969 595.631 259.581H595.628Z" fill="#FDA78C"></path><path d="M425.198 130.783C422.907 130.524 420.737 130.955 418.864 131.901C417.632 132.521 416.354 133.019 415.036 133.402C413.244 133.922 411.465 132.537 411.491 130.673L411.949 94.7984C411.974 92.6782 413.717 90.9834 415.839 91.0077L451.411 91.4631C453.267 91.4846 454.584 89.7027 454.058 87.9266C453.641 86.516 453.114 85.1311 452.489 83.7975C451.795 82.3198 451.412 80.6679 451.437 78.9318C451.521 72.3413 457.293 67.1614 464.021 67.9952C469.168 68.6334 473.263 72.8767 473.724 78.0423C473.925 80.3352 473.437 82.4926 472.448 84.3415C471.781 85.5794 471.241 86.8744 470.816 88.2107C470.275 89.9469 471.578 91.7187 473.4 91.7416L509.052 92.197C511.171 92.2227 512.867 93.9617 512.841 96.0848L512.39 131.734C512.363 133.556 514.104 134.907 515.851 134.403C517.199 134.02 518.504 133.512 519.763 132.879C521.636 131.931 523.799 131.499 526.091 131.763C531.242 132.355 535.381 136.554 535.891 141.714C536.551 148.463 531.218 154.099 524.635 154.016C522.893 153.996 521.258 153.572 519.8 152.844C518.474 152.183 517.109 151.619 515.708 151.166C513.945 150.598 512.13 151.871 512.108 153.723L511.656 189.295C511.628 191.417 509.887 193.116 507.769 193.093L472.145 192.638C470.276 192.615 468.935 190.797 469.501 189.02C469.922 187.715 470.45 186.446 471.103 185.234C472.096 183.387 472.586 181.224 472.378 178.933C471.918 173.77 467.826 169.525 462.683 168.89C455.95 168.053 450.179 173.238 450.098 179.822C450.076 181.559 450.454 183.216 451.145 184.687C451.762 186.005 452.281 187.352 452.692 188.736C453.231 190.55 451.875 192.381 449.98 192.355L414.559 191.905C412.432 191.878 410.736 190.134 410.762 188.012L411.208 152.835C411.231 150.938 413.095 149.628 414.898 150.217C416.27 150.663 417.605 151.217 418.901 151.864C420.355 152.595 422.001 153.016 423.737 153.036C430.325 153.121 435.652 147.484 434.991 140.738C434.485 135.575 430.349 131.377 425.2 130.783H425.198Z" fill="#1BBBBA"></path><path d="M443.013 204.148L448.607 203.947C448.591 201.834 448.578 199.722 448.567 197.614C449.315 196.197 449.578 194.562 449.448 192.963C449.318 191.42 448.784 190.037 449.262 188.487C449.676 187.148 450.142 183.036 449.011 182.678C447.413 182.168 444.162 185.322 443.33 186.509C442.636 187.495 442.568 188.647 442.62 189.795C442.747 192.819 443.273 195.81 443.851 198.783C443.573 200.57 443.293 202.361 443.013 204.15V204.148Z" fill="#FDA78C"></path><path d="M481.408 203.33L475.811 203.406C475.724 201.297 475.63 199.186 475.54 197.075C474.722 195.7 474.378 194.083 474.428 192.477C474.481 190.932 474.945 189.521 474.394 187.996C473.914 186.683 473.247 182.596 474.356 182.182C475.933 181.594 479.332 184.584 480.224 185.725C480.963 186.676 481.09 187.823 481.095 188.976C481.114 192 480.737 195.014 480.306 198.013C480.673 199.785 481.04 201.558 481.408 203.332V203.33Z" fill="#FDA78C"></path><path d="M487.073 241.651C487.073 241.651 487.971 234.425 488.384 231.153C488.384 231.153 487.415 229.557 487.723 227.436C487.527 227.426 486.377 215.473 484.039 215.105C478.932 214.298 476.365 214.511 474.712 215.469C473.628 216.941 473.271 218.543 472.358 221.01C470.44 226.177 470.497 231.114 472.673 233.741C473.794 235.099 476.241 235.355 477.826 235.075L476.437 241.651C476.437 241.651 482.572 242.523 487.072 241.651H487.073Z" fill="#FDA78C"></path><path d="M472.982 219.244C473.516 218.417 477.073 213.547 479.154 214.795C483.333 217.291 482.108 222.386 483.146 224.313C484.304 226.468 484.721 226.795 484.765 226.744C486.981 228.921 487.445 231.901 487.699 234.909C487.715 235.055 487.856 235.173 488 235.096C491.187 233.323 494.001 230.933 495.447 227.505C496.184 225.752 496.652 223.723 496.796 221.684C497.646 221.827 498.52 221.83 499.376 221.667C503.567 220.869 507.746 215.158 504.645 211.244C503.124 209.328 500.509 208.786 498.194 209.191C496.348 209.512 494.676 210.472 493.408 211.827C492.309 210.78 491.038 209.891 489.732 209.151C487.109 207.671 483.992 206.904 481.167 207.958C479.515 207.499 477.829 207.683 476.33 208.607C472.954 210.687 473.046 217.092 472.98 219.245L472.982 219.244Z" fill="#402013"></path><path d="M487.435 227.267C486.488 228.363 485.135 228.746 484.404 228.12C483.677 227.495 483.854 226.096 484.799 224.996C485.746 223.898 486.925 223.72 487.65 224.348C488.38 224.975 488.378 226.17 487.435 227.267Z" fill="#FDA78C"></path><path d="M477.993 235.018C479.745 234.999 481.517 234.715 483.066 233.858C483.296 233.727 483.503 234.083 483.273 234.21C481.662 235.103 479.819 235.408 477.994 235.425C477.73 235.429 477.73 235.022 477.994 235.019L477.993 235.018Z" fill="#F5816C"></path><path d="M537.77 354.889L540.356 360.176L528.067 367.853L520.87 361.809L537.77 354.889Z" fill="#FDA78C"></path><path d="M548.215 365.796C550.289 364.999 548.649 361.585 547.938 359.843C547.046 357.654 545.42 354.155 543.588 353.03C541.786 351.918 537.897 354.639 536.721 355.369C536.721 355.369 539.206 358.71 539.378 360.787C540.22 361.322 541.05 362.108 541.825 362.729C542.851 363.553 543.879 364.386 545.024 365.042C545.958 365.577 547.142 366.211 548.214 365.796H548.215Z" fill="#14232F"></path><path d="M491.163 427.827L485.299 428.33L482.566 414.101L490.393 413.548L491.163 427.827Z" fill="#FDA78C"></path><path d="M477.222 433.634C477.22 435.857 480.994 435.555 482.877 435.521C485.234 435.477 489.088 435.223 490.798 433.924C492.485 432.639 491.354 428.031 491.098 426.672C491.098 426.672 487.083 427.789 485.082 427.197C484.278 427.791 483.248 428.278 482.388 428.779C481.247 429.44 480.102 430.099 479.075 430.93C478.24 431.606 477.222 432.483 477.222 433.632V433.634Z" fill="#14232F"></path><path d="M442.011 230.73C442.773 234.832 445.105 238.135 447.873 241.154C453.434 247.218 459.573 252.782 465.609 258.394C464.472 262.818 463.591 267.304 462.924 271.824C460.727 286.687 459.93 301.728 460.085 316.724C460.256 333.327 456.866 345.599 456.866 345.599C458.77 347.393 463.253 350.911 469.164 351.838L476.438 241.65C470.404 238.419 460.032 231.754 452.475 225.87C451.578 217.791 450.175 210.076 448.723 201.07L443.42 200.649C442.598 206.082 441.175 226.249 442.011 230.73Z" fill="#30617A"></path><path d="M465.09 295.667H497.68C502.443 314.044 505.346 332.896 506.247 351.865C506.381 354.662 506.464 357.456 506.509 360.257C513.348 358.34 524.272 356.347 531.381 356.422C532.679 359.096 533.978 361.772 535.28 364.451C529.108 370.337 518.872 377.479 510.995 381.021C507.346 382.666 503.221 384.048 499.222 382.92C497.459 382.42 495.915 381.504 494.541 380.356C494.523 383.742 494.264 387.14 494.091 390.507C493.825 395.588 493.531 400.671 493.211 405.748C492.889 410.814 492.559 415.88 492.158 420.935H482.582C477.118 406.04 472.366 390.48 468.97 375.009C467.178 366.835 465.539 358.615 465.016 350.246C464.482 341.637 464.529 332.972 464.362 324.348C464.172 314.783 463.934 305.183 465.093 295.664L465.09 295.667Z" fill="#88CEFC"></path><path d="M464.923 294.184C465.336 288.102 465.61 281.989 466.331 275.933C466.994 270.39 468.06 264.898 469.531 259.511C471.218 253.32 473.74 247.474 476.438 241.651C477.231 241.594 478.086 241.535 478.964 241.476C483.665 241.154 489.012 240.832 489.012 240.832V295.707C483.291 295.761 478.441 299.295 472.896 300.256C470.711 300.633 468.41 300.634 466.325 299.803C465.634 299.529 464.822 299.121 464.822 299.121C464.772 298.147 464.86 295.052 464.922 294.185L464.923 294.184Z" fill="#FFD573"></path><path d="M475.12 200.379C473.898 212.838 475.196 223.776 475.684 228.601C476.437 236.113 479.191 238.743 487.54 249.254C483.975 258.173 484.351 274.09 485.583 286.562C488.384 314.969 489.392 328.066 486.064 352.766C486.064 352.766 510.163 348.86 513.376 341.038C510.397 323.847 505.194 305.447 503.046 298.997C501.282 293.704 500.58 286.562 504.898 270.666C506.014 266.555 507.91 255.112 507.595 250.864C507.152 244.989 504.848 240.318 499.622 237.903C497.979 236.595 495.948 235.186 494.356 233.831C490.149 230.238 486.567 228.275 486.065 225.595C484.781 218.703 483.373 209.098 481.22 199.911L475.123 200.379H475.12Z" fill="#30617A"></path><path d="M487.971 249.624C491.258 252.936 494.73 256.06 498.38 258.977C498.587 259.137 498.33 259.458 498.124 259.292C494.473 256.378 491.003 253.256 487.713 249.942C487.527 249.755 487.784 249.434 487.971 249.624Z" fill="#224A5F"></path><path d="M465.28 257.925C466.859 253.029 468.798 248.264 471.083 243.66C471.198 243.423 471.552 243.631 471.435 243.867C469.168 248.44 467.243 253.172 465.677 258.032C465.596 258.279 465.197 258.175 465.282 257.925H465.28Z" fill="#224A5F"></path><path d="M494.419 380.761C482.476 367.282 476.738 349.853 473.191 332.495C473.14 332.239 473.535 332.128 473.587 332.386C477.116 349.669 482.813 367.048 494.709 380.476C494.883 380.67 494.593 380.961 494.419 380.761Z" fill="#65BCEB"></path><path d="M469.354 298.8C468.673 290.567 469.948 282.385 471.251 274.275C471.29 274.02 471.687 274.128 471.644 274.385C470.349 282.456 469.081 290.602 469.763 298.8C469.786 299.062 469.378 299.061 469.354 298.8Z" fill="#FFA53D"></path><path d="M471.935 289.392C473.156 280.966 475.99 272.856 480.279 265.502C480.413 265.273 480.766 265.479 480.631 265.709C476.361 273.033 473.546 281.107 472.333 289.502C472.293 289.762 471.899 289.652 471.935 289.392Z" fill="#FFA53D"></path><path d="M91.9276 268.212C91.9576 270.77 91.8791 272.145 92.0461 274.698C92.1675 276.558 92.5701 278.356 93.7166 279.745C96.0124 282.535 99.8788 282.989 103.013 283.381C111.905 284.495 120.857 285.159 129.77 286.003C132.146 287.556 134.416 289.337 137.04 290.326C140.484 291.63 148.434 289.05 147.974 287.036C147.69 285.79 142.503 286.124 140.26 285.252C138.631 284.621 137.353 283.297 137.09 282.656C137.236 282.002 138.138 281.551 138.821 281.565C140.059 281.594 141.149 280.991 140.948 280.272C140.83 279.842 139.359 279.609 138.849 279.497C135.654 278.776 132.657 280.313 129.59 280.907C124.565 279.104 119.54 277.306 114.515 275.509C110.735 274.155 106.938 272.843 103.064 271.915C103.057 270.776 103.05 269.638 103.044 268.5C100.66 268.601 91.9276 268.21 91.9276 268.21V268.212Z" fill="#A76B63"></path><path d="M42.0334 419.566L47.6302 422.389L55.974 409.412L48.4569 405.755L42.0334 419.566Z" fill="#A76B63"></path><path d="M52.7516 427.432C52.0663 426.201 51.1925 425.099 50.3301 423.994C49.6776 423.157 48.8524 422.26 48.2956 421.359C46.0811 421.147 42.556 418.454 42.556 418.454C41.7622 419.695 38.8139 423.801 39.9747 425.74C41.1483 427.706 44.8547 429.482 47.1734 430.463C49.0195 431.242 52.6331 433.041 53.5097 430.84C53.968 429.705 53.3084 428.434 52.753 427.432H52.7516Z" fill="#14232F"></path><path d="M96.1152 423.661L102.362 424.198L105.27 409.044L96.9348 408.452L96.1152 423.661Z" fill="#A76B63"></path><path d="M108.989 426.972C107.9 426.085 106.676 425.387 105.463 424.679C104.546 424.145 103.448 423.627 102.593 422.993C100.46 423.621 96.1852 422.436 96.1852 422.436C95.914 423.879 94.7075 428.792 96.5008 430.157C98.3297 431.545 102.426 431.813 104.944 431.862C106.946 431.896 110.971 432.217 110.968 429.85C110.968 428.624 109.882 427.689 108.991 426.97L108.989 426.972Z" fill="#14232F"></path><path d="M46.3096 408.452C46.3096 408.452 54.0408 412.806 55.974 412.901C55.974 412.901 73.1613 389.675 78.5753 377.062C81.7792 369.598 82.6087 360.055 84.3363 351.948C85.9297 356.922 94.6889 370.643 94.4919 373.294C93.2398 390.013 92.9728 404.875 95.5356 411.519C95.5356 411.519 99.085 413.304 106.769 411.899C106.769 411.899 116.588 382.366 114.874 367.142C114.073 359.987 103.248 317.903 97.7015 306.334L94.8017 299.11C91.7206 299.322 66.4994 299.367 57.4846 298.874C49.0037 321.215 60.6014 368.488 60.6014 368.488C53.4512 383.835 47.4061 395.049 46.3096 408.452Z" fill="#30617A"></path><path d="M49.155 274.692C50.1687 256.802 51.3495 245.435 57.6416 239.53C61.0054 236.371 65.8697 235.011 70.2543 233.723L80.754 235.663C87.6172 237.813 92.4202 238.483 96.8019 243.993C100.857 249.093 103.457 260.31 104.493 270.016C101.928 270.734 100.149 271.121 98.8736 271.615C98.1255 276.393 92.9827 289.061 98.8936 304.922C86.9305 308.29 77.1232 311.945 54.0965 304.629C57.6801 293.439 53.5996 274.746 53.5996 274.746L49.1565 274.692H49.155Z" fill="#E8F8F8"></path><path d="M80.7541 235.663L81.1724 231.343C82.6615 232.091 85.1615 232.566 86.6764 231.557C89.6104 229.601 91.1367 224.727 90.7769 219.037C90.6027 216.323 90.7283 214.63 90.0944 212.848C88.7409 211.406 86.2638 210.431 80.964 209.712C78.5339 209.381 73.8409 220.879 73.6424 220.83C73.3183 223.023 71.8835 224.317 71.8835 224.317C71.3181 227.681 70.2544 233.723 70.2544 233.723C74.4491 235.927 80.7541 235.663 80.7541 235.663Z" fill="#A76B63"></path><path d="M84.0965 351.665C84.7589 343.284 85.4314 337.186 86.3566 326.445C86.3794 326.165 86.8049 326.255 86.7821 326.534C86.2024 334.776 85.2715 343.2 84.5234 351.755C84.4991 352.033 84.0722 351.943 84.0965 351.666V351.665Z" fill="#224A5F"></path><path d="M66.3595 393.323C63.651 399.665 58.9823 405.069 53.0942 408.658C52.8572 408.805 52.5988 408.455 52.8372 408.31C58.6653 404.755 63.2812 399.425 65.9583 393.143C66.0682 392.886 66.4694 393.066 66.3595 393.323Z" fill="#224A5F"></path><path d="M58 399.268C60.867 393.39 62.6331 387.036 63.2156 380.524C63.2385 380.247 63.6754 380.244 63.6511 380.524C63.0614 387.116 61.2767 393.538 58.377 399.489C58.2542 399.742 57.8773 399.522 57.9986 399.268H58Z" fill="#224A5F"></path><path d="M104.146 408.912C106.623 403.333 108.245 397.403 108.961 391.341C108.992 391.064 109.43 391.065 109.399 391.344C108.672 397.49 107.029 403.477 104.523 409.131C104.409 409.391 104.032 409.166 104.146 408.912Z" fill="#224A5F"></path><path d="M102.402 405.387C103.481 397.14 103.344 388.791 101.976 380.587C101.933 380.313 102.35 380.199 102.397 380.474C103.772 388.715 103.924 397.098 102.836 405.387C102.803 405.661 102.366 405.661 102.402 405.387Z" fill="#224A5F"></path><path d="M65.0916 274.689C66.9177 274.701 68.7467 274.724 70.5713 274.672C70.8555 274.664 70.8555 275.099 70.5713 275.108C68.7452 275.16 66.9163 275.136 65.0916 275.128C64.8075 275.123 64.8075 274.688 65.0916 274.689Z" fill="#61A5A8"></path><path d="M65.063 238.557C66.852 240.65 68.4554 242.928 69.3349 245.562C70.3243 248.536 70.7198 251.775 70.9982 254.885C71.6007 261.545 71.2066 268.244 70.8097 274.906C70.7897 275.186 70.3571 275.188 70.3728 274.906C70.7398 268.774 71.101 262.615 70.6855 256.471C70.4756 253.303 70.093 250.101 69.3049 247.017C68.5039 243.896 66.832 241.293 64.7575 238.863C64.5747 238.653 64.8817 238.342 65.0644 238.556L65.063 238.557Z" fill="#61A5A8"></path><path d="M98.4596 270.913C98.3454 262.119 97.0704 253.444 94.5018 245.025C94.419 244.755 94.8388 244.642 94.9216 244.911C97.5015 253.362 98.7822 262.081 98.8922 270.913C98.8965 271.191 98.4624 271.191 98.4596 270.913Z" fill="#61A5A8"></path><path d="M68.1756 258.202C66.4009 262.773 63.6625 266.921 60.1473 270.343C59.9446 270.539 59.6362 270.229 59.8361 270.035C63.2984 266.668 66.0054 262.588 67.7544 258.085C67.8558 257.825 68.277 257.937 68.1742 258.202H68.1756Z" fill="#61A5A8"></path><path d="M62.8443 264.171C60.3301 266.42 57.496 268.274 54.4278 269.669C54.175 269.784 53.9537 269.408 54.2093 269.294C57.2433 267.913 60.0531 266.083 62.5345 263.861C62.7444 263.674 63.0528 263.981 62.8443 264.171Z" fill="#61A5A8"></path><path d="M37.4119 222.879C39.2437 219.511 42.1863 217.347 45.6814 215.946C48.1985 214.936 49.6934 213.55 50.5586 210.969C51.1311 209.271 51.4481 207.491 52.1991 205.857C53.6825 202.618 56.9364 200.495 60.4129 200.021C64.1893 199.507 69.4378 200.806 71.6279 204.235C73.287 203.21 75.2002 202.551 77.0934 202.124C80.1302 201.437 83.4454 201.606 85.9311 203.49C87.7044 203.53 89.3206 204.208 90.5313 205.573C93.2512 208.636 91.2581 214.952 90.6813 217.104C90.3957 216.129 88.3241 210.246 85.8897 210.857C81.014 212.091 80.7084 217.501 79.1093 219.1C77.3175 220.89 76.8064 221.091 76.7778 221.029C73.938 222.522 72.5902 225.338 71.4452 228.243C71.3895 228.383 71.2125 228.459 71.0925 228.334C68.4626 225.632 66.3838 222.426 65.974 218.6C65.5771 214.891 66.4009 210.485 68.4198 207.308C68.6082 207.011 68.811 206.728 69.028 206.463C66.0611 205.64 62.8344 205.525 60.1145 207.172C58.6197 208.08 57.409 209.44 56.8593 211.12C56.2696 212.922 56.5466 214.878 56.5652 216.733C56.5966 219.611 55.8684 222.267 54.0423 224.522C53.0158 225.789 51.825 226.942 51.1269 228.439C50.3544 230.098 50.2045 231.934 50.5743 233.703C50.6414 234.024 50.3673 234.314 50.0518 234.228C49.0823 233.973 47.3219 233.283 46.2411 231.517L45.1317 234.671C45.0632 234.858 44.8762 234.985 44.6777 234.966C41.7665 234.717 39.999 232.912 39.999 232.912C39.5621 233.197 38.9553 233.956 38.5641 234.474C38.3927 234.702 38.0444 234.658 37.9287 234.394C37.1663 232.636 36.2768 230.389 36.0998 228.6C35.9013 226.574 36.4481 224.651 37.4119 222.88V222.879Z" fill="#14232F"></path><path d="M73.9808 220.75C74.5891 222.12 75.8198 222.9 76.7278 222.495C77.6359 222.092 77.8743 220.655 77.2647 219.287C76.6579 217.919 75.5414 217.389 74.6333 217.795C73.7253 218.197 73.3726 219.383 73.9808 220.752V220.75Z" fill="#A76B63"></path><path d="M80.9069 231.645C79.1122 231.084 77.3675 230.239 76.0411 228.873C75.8526 228.681 76.1525 228.376 76.3409 228.574C77.6188 229.886 79.2878 230.697 81.0182 231.236C81.2809 231.318 81.1681 231.724 80.9054 231.645H80.9069Z" fill="#8B5348"></path><path d="M115.136 267.545C114.622 265.3 114.817 263.097 115.555 261.129C116.199 259.425 116.609 257.648 116.828 255.853C116.966 254.654 115.954 253.643 114.759 253.79L77.8414 258.317C75.9511 258.549 74.6018 260.268 74.836 262.171L79.352 299.011C79.499 300.232 80.7583 300.953 81.9048 300.507C83.6623 299.812 85.3528 298.93 86.9562 297.896C88.3254 297.014 89.9088 296.417 91.6349 296.204C98.1726 295.402 104.079 300.424 104.161 307.201C104.215 312.393 100.564 317.009 95.5084 318.166C93.264 318.675 91.0609 318.483 89.0949 317.747C87.3916 317.106 85.6155 316.694 83.8137 316.478C82.6186 316.334 81.5978 317.349 81.7477 318.543L86.2765 355.459C86.5064 357.353 88.2354 358.7 90.1286 358.465L127.039 353.941C128.231 353.792 128.975 352.565 128.548 351.434C127.904 349.742 127.073 348.119 126.035 346.619C124.847 344.892 124.128 342.8 124.083 340.499C123.978 335.309 127.58 330.643 132.626 329.455C139.228 327.889 145.527 332.412 146.329 338.952C146.539 340.676 146.343 342.358 145.821 343.898C145.198 345.707 144.757 347.557 144.51 349.433C144.352 350.648 145.353 351.695 146.566 351.547L183.415 347.026C185.31 346.795 186.663 345.072 186.428 343.18L181.902 306.261C181.752 305.07 180.525 304.329 179.399 304.756C177.704 305.399 176.082 306.23 174.583 307.266C172.85 308.454 170.761 309.171 168.459 309.222C163.272 309.328 158.609 305.726 157.414 300.673C155.849 294.078 160.37 287.777 166.907 286.975C168.634 286.764 170.318 286.955 171.86 287.486C173.661 288.102 175.517 288.546 177.391 288.797C178.612 288.953 179.656 287.947 179.504 286.73L174.99 249.886C174.753 247.985 173.027 246.643 171.132 246.874L134.282 251.396C133.071 251.545 132.35 252.803 132.803 253.938C133.489 255.699 134.363 257.391 135.403 258.995C136.286 260.362 136.883 261.948 137.092 263.671C137.893 270.206 132.877 276.124 126.091 276.194C120.905 276.26 116.282 272.6 115.133 267.545H115.136Z" fill="#398FB9"></path><path d="M51.3495 274.731C51.378 277.288 51.8506 283.511 54.5691 286.107C57.209 288.628 61.6293 289.217 64.8474 289.609C73.9765 290.723 83.1683 291.39 92.3217 292.233C94.7588 293.783 96.7348 295.993 99.499 296.767C104.222 298.093 111.286 295.15 110.987 293.863C110.587 292.131 105.487 292.68 102.669 291.224C101.084 290.406 100.019 289.713 99.8331 288.884C100.047 288.331 100.655 287.919 101.314 287.685C101.84 287.499 102.994 287.359 103.46 286.924C104.767 285.702 102.824 285.44 101.566 285.352C98.3311 285.126 95.2814 286.544 92.1346 287.136C86.9733 285.333 81.8148 283.534 76.6564 281.738C72.7729 280.386 68.8737 279.07 64.8974 278.144C64.8917 277.005 64.886 275.869 64.8774 274.729C62.4317 274.831 51.3495 274.729 51.3495 274.729V274.731Z" fill="#A76B63"></path><path d="M219.89 424.527L213.728 424.623L211.924 409.556H220.141L219.89 424.527Z" fill="#FDA78C"></path><path d="M219.774 423.25C219.143 422.35 217.957 422.056 216.842 422.219C215.528 422.413 213.519 423.859 212.267 426.552C211.34 428.554 210.578 431.039 211.699 433.008C212.311 434.091 213.398 434.757 214.619 434.96C215.779 435.159 217.248 435.149 218.312 434.567C219.409 433.968 220.091 432.82 220.29 431.612C220.525 430.161 220.581 428.622 220.624 427.162C220.664 425.832 220.564 424.372 219.774 423.251V423.25Z" fill="#14232F"></path><path d="M246.622 424.527L252.784 424.623L254.586 409.556H246.369L246.622 424.527Z" fill="#FDA78C"></path><path d="M245.885 427.16C245.928 428.621 245.985 430.16 246.222 431.611C246.422 432.82 247.103 433.966 248.201 434.566C249.263 435.147 250.731 435.157 251.896 434.959C253.114 434.754 254.197 434.089 254.814 433.007C255.932 431.039 255.172 428.554 254.243 426.551C252.992 423.858 250.981 422.412 249.671 422.217C248.553 422.055 247.37 422.349 246.736 423.248C245.946 424.369 245.846 425.831 245.886 427.159L245.885 427.16Z" fill="#14232F"></path><path d="M171.386 209.128C172.441 204.453 173.979 199.825 175.061 195.156C174.877 194.211 174.37 193.306 174.07 192.238C173.632 190.699 172.904 189.254 172.671 187.661C172.229 184.657 172.981 181.447 174.13 178.575C174.994 176.42 177.918 173.794 180.233 175.254C182.578 176.731 177.5 183.492 180.415 186.953C182.843 187.439 182.494 182.571 183.575 182.528C185.391 182.459 184.306 188.359 183.936 189.501C183.265 191.578 181.49 193.553 180.657 195.572C180.66 205.242 180.474 214.517 180.562 224.185C184.514 226.289 188.551 228.23 192.658 230.012L193.671 249.007C186.011 245.465 175.184 240.929 170.094 233.656C167.527 229.989 169.029 219.605 171.385 209.127L171.386 209.128Z" fill="#FDA78C"></path><path d="M282.926 202.835C281.686 198.206 279.961 193.643 278.686 189.026C278.832 188.078 279.303 187.151 279.558 186.072C279.932 184.515 280.602 183.039 280.771 181.439C281.093 178.42 280.207 175.245 278.942 172.419C277.991 170.302 274.96 167.798 272.708 169.35C270.425 170.922 275.773 177.472 273.002 181.049C270.596 181.633 270.746 176.754 269.664 176.757C267.847 176.76 269.17 182.612 269.59 183.74C270.344 185.786 272.194 187.686 273.112 189.671C273.505 199.331 274.067 208.593 274.376 218.259C270.511 220.519 266.557 222.625 262.524 224.572L262.288 243.593C269.797 239.745 280.431 234.766 285.219 227.292C287.631 223.527 285.712 213.212 282.926 202.838V202.835Z" fill="#FDA78C"></path><path d="M234.807 227.214C234.807 227.214 234.427 221.561 234.304 218.01C234.304 218.01 232.994 216.481 232.957 214.176C232.747 214.201 229.46 201.7 226.909 201.711C221.345 201.738 218.655 202.407 217.066 203.712C216.166 205.463 216.065 207.224 215.521 210.005C214.38 215.825 215.292 221.063 218.055 223.479C219.483 224.725 222.127 224.574 223.763 224.004L223.703 227.798C223.703 227.798 230.175 228.921 234.807 227.214Z" fill="#FDA78C"></path><path d="M240.202 205.974C239.621 204.61 239.296 203.529 239.554 202.028C239.894 200.062 239.531 198.143 237.877 196.85C236.423 195.72 234.453 195.646 232.865 196.437C233.152 195.146 232.077 194.263 230.961 193.891C229.377 193.365 227.481 192.959 225.806 193.146C225.115 193.223 224.437 193.412 223.826 193.747C223.148 194.123 222.688 194.874 221.996 195.185C221.48 195.419 220.991 195.259 220.464 195.201C219.983 195.149 219.5 195.151 219.017 195.205C218.246 195.288 217.494 195.498 216.796 195.836C216.116 196.162 215.538 196.6 215.084 197.205C214.547 197.915 214.179 198.676 213.418 199.19C212.29 199.954 211.048 200.356 210.647 201.8C210.292 203.063 210.684 204.424 211.489 205.425C211.929 205.97 212.473 206.413 213.065 206.783C213.665 207.161 214.491 207.652 215.207 207.758C215.899 207.859 216.228 207.257 216.66 206.804C217.35 206.077 218.117 205.416 218.936 204.837C220.288 203.883 221.777 203.168 223.349 202.674C225.528 203.793 227.578 205.516 228.152 207.992C228.448 209.274 228.341 210.735 229.076 211.884C229.581 212.662 230.428 213.259 231.355 213.158C231.52 214.38 231.797 215.59 232.143 216.783C232.447 217.842 232.8 218.887 233.161 219.929C233.412 220.662 233.616 221.466 234.327 221.877C234.456 221.951 234.574 221.828 234.557 221.7C234.313 220.119 235.878 219.244 236.819 218.273C237.551 217.508 237.839 216.601 238.069 215.588C238.206 214.989 238.336 214.384 238.605 213.827C238.89 213.243 239.289 212.723 239.658 212.194C240.275 211.306 240.732 210.381 240.849 209.293C240.978 208.113 240.659 207.054 240.204 205.982L240.202 205.974Z" fill="#14232F"></path><path d="M232.62 214.047C231.806 215.381 230.429 216.02 229.547 215.48C228.668 214.941 228.613 213.425 229.426 212.094C230.24 210.765 231.465 210.371 232.346 210.91C233.228 211.449 233.433 212.719 232.618 214.047H232.62Z" fill="#FDA78C"></path><path d="M206.281 309.035C205.734 346.232 209.095 410.374 209.763 419.221C213.375 419.188 219.18 419.256 222.797 419.221C225.285 404.061 229.717 369.758 233.145 342.892C236.576 369.756 241.008 404.061 243.501 419.221C247.114 419.256 252.919 419.188 256.53 419.221C257.196 410.376 260.108 348.334 259.604 307.102L206.279 309.037L206.281 309.035Z" fill="#1BBBBA"></path><path d="M267.395 221.894C257.872 223.51 252.789 225.77 245.624 225.647C239.093 225.539 234.521 226.034 234.521 226.034C229.332 228.073 223.105 227.786 223.105 227.786C211.259 228.162 210.193 230.645 204.095 229.752C193.257 228.162 188.551 228.089 188.549 228.113C188.094 233.256 189.724 251.153 189.724 251.153C189.724 251.153 200.324 256.264 201.91 256.497C204.43 269.865 203.069 295.594 204.083 310.527L262.562 309.037C260.809 284.816 259.027 273.471 258.876 254.464C261.299 253.527 268.026 247.035 268.026 247.035L267.394 221.895L267.395 221.894Z" fill="#FFD573"></path><path d="M202.336 256.433C201.529 252.222 200.775 247.998 200.073 243.769C200.027 243.496 199.601 243.557 199.649 243.828C200.351 248.062 201.105 252.282 201.91 256.495C201.964 256.764 202.387 256.705 202.336 256.433Z" fill="#FFA53D"></path><path d="M258.876 254.462C259.291 250.025 259.534 245.567 259.606 241.106C259.608 240.833 259.183 240.876 259.176 241.151C259.109 245.575 258.866 249.989 258.453 254.395C258.428 254.665 258.85 254.739 258.876 254.462Z" fill="#FFA53D"></path><path d="M204.29 307.101C211.106 306.915 214.647 306.728 221.466 306.541C232.45 306.238 242.338 305.937 253.325 305.627C256.08 305.549 258.839 305.506 261.596 305.387C261.873 305.375 261.873 304.945 261.596 304.958C254.397 305.265 248.281 305.369 241.079 305.572C230.204 305.873 222.607 306.173 211.73 306.47C209.252 306.538 206.769 306.604 204.29 306.672C204.013 306.679 204.012 307.111 204.29 307.101Z" fill="#FFA53D"></path><path d="M210.271 276.507C213.311 284.999 216.539 293.424 219.95 301.775C220.051 302.029 220.468 301.921 220.365 301.661C216.951 293.309 213.726 284.885 210.684 276.39C210.592 276.133 210.177 276.244 210.271 276.507Z" fill="#FFA53D"></path><path d="M218.415 289.458C216.47 282.558 214.858 275.566 213.588 268.513C213.536 268.242 213.122 268.353 213.175 268.626C214.446 275.68 216.055 282.67 217.999 289.572C218.077 289.836 218.488 289.724 218.415 289.458Z" fill="#FFA53D"></path><path d="M233.401 342.887C233.304 335.84 233.205 328.793 233.107 321.742C233.107 321.47 232.674 321.468 232.677 321.742C232.775 328.793 232.875 335.84 232.971 342.887C232.977 343.16 233.406 343.161 233.401 342.887Z" fill="#1C6F73"></path><path d="M235.492 314.745C235.424 323.524 235.395 328.291 235.439 337.072C235.442 337.346 235.871 337.348 235.868 337.072C235.825 328.293 235.856 323.526 235.919 314.745C235.921 314.469 235.492 314.469 235.492 314.745Z" fill="#1C6F73"></path><path d="M224.006 224.337C225.861 223.759 227.663 222.882 229.03 221.474C229.226 221.271 228.919 220.962 228.719 221.161C227.406 222.521 225.674 223.359 223.889 223.911C223.619 223.994 223.735 224.421 224.006 224.337Z" fill="#F5816C"></path><path d="M219.19 230.145C222.985 232.167 227.348 231.814 231.457 231.219C231.726 231.181 231.61 230.767 231.342 230.806C227.357 231.384 223.089 231.738 219.407 229.778C219.165 229.647 218.948 230.018 219.19 230.145Z" fill="#FFA53D"></path><path d="M149.713 137.848C149.981 132.668 153.916 128.283 159.032 127.451C161.312 127.08 163.492 127.415 165.413 128.273C166.696 128.852 168.027 129.294 169.383 129.614C171.155 130.038 172.828 128.606 172.724 126.79L170.617 91.1962C170.487 89.0802 172.109 87.2627 174.22 87.1371L209.733 85.0326C211.589 84.9269 212.768 83.0509 212.126 81.3161C211.61 79.9455 210.984 78.6006 210.261 77.3142C209.459 75.8907 208.968 74.2688 208.863 72.5326C208.474 65.9578 213.859 60.3753 220.631 60.7265C225.809 60.9907 230.194 64.9241 231.028 70.0469C231.398 72.3184 231.063 74.5072 230.204 76.4232C229.629 77.7054 229.182 79.0346 228.86 80.3995C228.438 82.1699 229.866 83.8433 231.687 83.7347L267.275 81.6288C269.399 81.5017 271.21 83.118 271.339 85.2325L273.448 120.828C273.555 122.642 275.388 123.866 277.096 123.239C278.411 122.757 279.678 122.16 280.881 121.433C282.685 120.358 284.818 119.767 287.12 119.865C292.303 120.088 296.727 123.979 297.602 129.089C298.75 135.772 293.842 141.777 287.265 142.167C285.526 142.27 283.862 141.964 282.355 141.345C280.988 140.778 279.584 140.315 278.156 139.967C276.357 139.526 274.634 140.925 274.743 142.777L276.847 178.29C276.976 180.406 275.362 182.231 273.243 182.354L180.187 187.863C178.072 187.991 176.252 186.374 176.128 184.258L174.02 148.742C173.915 146.896 172.042 145.706 170.305 146.354C168.929 146.871 167.59 147.494 166.305 148.221C164.877 149.016 163.258 149.514 161.519 149.615C154.943 150.007 149.36 144.62 149.71 137.851L149.713 137.848Z" fill="#30617A"></path><path d="M465.62 420.468C466.134 419.649 466.539 418.772 466.774 417.811C467.36 415.384 466.812 412.636 464.676 411.139C462.632 409.707 459.87 409.903 457.603 410.63C456.551 410.971 455.533 411.428 454.556 411.969C455.514 410.586 456.391 409.151 457.172 407.659C458.487 405.157 459.781 401.745 457.475 399.382C455.697 397.564 452.767 397.596 450.452 398.063C447.403 398.677 444.388 400.05 441.722 401.624C440.993 402.053 440.287 402.512 439.598 402.996C441.65 399.747 443.297 396.241 444.468 392.563C445.994 387.756 447.62 380.286 442.425 377.018C437.242 373.757 430.453 378.014 426.206 380.981C421.037 384.592 416.592 389.121 412.746 394.102C409.712 398.033 407.048 402.229 404.639 406.569C404.639 405.396 404.442 404.253 403.981 403.227C402.405 399.726 398.519 401.988 396.474 403.651C391.331 407.831 387.855 413.939 386.79 420.466H465.62V420.468Z" fill="#E6ECEE"></path><path d="M429.621 392.612C425.547 402.079 422.685 412.022 421.124 422.212C421.047 422.7 421.798 422.911 421.874 422.417C423.427 412.3 426.248 402.407 430.295 393.007C430.49 392.55 429.818 392.152 429.619 392.612H429.621Z" fill="#1C6F73"></path><path d="M448.984 403.642C443.476 408.852 439.184 415.196 436.367 422.235C436.183 422.699 436.932 422.901 437.118 422.442C439.883 415.533 444.128 409.306 449.532 404.195C449.899 403.849 449.345 403.298 448.982 403.642H448.984Z" fill="#1C6F73"></path><path d="M459.863 413.121C456.655 415.194 454.309 418.928 452.342 422.122C452.076 422.55 452.752 422.941 453.017 422.512C454.06 420.82 455.189 419.182 456.43 417.619C457.555 416.201 458.721 414.786 460.257 413.794C460.68 413.522 460.287 412.847 459.865 413.12L459.863 413.121Z" fill="#1C6F73"></path><path d="M398.948 407.736C397.319 412.442 396.417 417.346 396.254 422.323C396.237 422.826 397.017 422.826 397.032 422.323C397.192 417.413 398.09 412.587 399.701 407.943C399.864 407.47 399.114 407.265 398.948 407.737V407.736Z" fill="#1C6F73"></path><path d="M419.2 406.141C420.196 409.052 421.324 411.912 422.579 414.717C422.782 415.174 423.454 414.782 423.252 414.329C422.027 411.579 420.927 408.781 419.951 405.935C419.792 405.464 419.035 405.666 419.201 406.141H419.2Z" fill="#1C6F73"></path><path d="M455.163 413.759C455.072 415.144 455.086 416.526 455.212 417.908C455.257 418.407 456.036 418.41 455.99 417.908C455.864 416.525 455.849 415.143 455.946 413.759C455.977 413.26 455.199 413.261 455.163 413.759Z" fill="#1C6F73"></path><path d="M399.418 413.754C398.637 414.693 397.855 415.631 397.075 416.569C396.755 416.952 397.306 417.506 397.626 417.12C398.409 416.184 399.188 415.249 399.971 414.306C400.29 413.925 399.739 413.37 399.418 413.754Z" fill="#1C6F73"></path></g><defs><clipPath id="clip0_500_1987"><rect width="724.825" height="450" fill="white" transform="translate(0.0875244)"></rect></clipPath></defs></svg>